<svg version="1.1" id="Layer_1" xmlns="http://www.w3.org/2000/svg" x="0" y="0" viewBox="0 0 160.2 29" xml:space="preserve"><style>.st0{fill:#264292}</style><path class="st0" d="M0 0h4.9v9.8C6 8.6 7.5 8 9.1 8c4.1 0 6.9 3.4 6.9 7.3.2 3.9-2.8 7.1-6.7 7.3h-.2c-1.6.1-3.2-.7-4.1-2h-.1v1.6H0V0zm4.7 15.3c-.1 1.6 1.1 3 2.8 3.1h.3c1.6.1 3-1.1 3.1-2.7v-.4c.1-1.7-1.2-3-2.9-3.1h-.2c-1.7-.1-3 1.2-3.1 2.9v.2zM23.5 22.2h-4.9V0h4.9v22.2zM31.6 8.5v7.3c0 1.7.4 3 2.4 3s2.4-1.2 2.4-3V8.5h4.9v8.3c0 4.5-3.2 5.9-7.3 5.9s-7.3-1.4-7.3-5.9V8.5h4.9zM58.9 16.2H48.6c-.2 1.5.8 2.8 2.3 3h.7c1 .1 1.9-.4 2.4-1.2h4.7c-.8 3.2-3.8 4.7-7 4.7-4.6 0-7.9-2.6-7.9-7.3S46.9 8 51.4 8c4.8 0 7.5 2.9 7.5 7.6v.6zm-4.5-2.8c-.4-1.6-2-2.5-3.6-2.1-1 .3-1.8 1.1-2.1 2.1h5.7zM76.1 20.9c0 5.8-2.9 8.2-7.9 8.2-3.1 0-7.4-1.6-7.8-5.2h5.5c.1.5.5.8.9 1 .4.2.9.3 1.4.3 2.7 0 3.1-1.7 3.1-3.9v-.6c-1.1 1.2-2.7 1.9-4.4 1.9-3.7.1-6.7-2.9-6.8-6.6v-.4c0-4 2.8-7.4 7-7.4 1.6-.1 3.1.6 4 1.9h.1V8.5h4.9v12.4zm-11-5.6c.1 1.7 1.6 3 3.3 2.9 1.6-.1 2.9-1.4 2.9-2.9-.1-1.7-1.6-3-3.3-2.9-1.5 0-2.8 1.3-2.9 2.9zM84.3 10.7c.9-1.6 2.7-2.6 4.5-2.4h.9V13c-.6-.3-1.3-.5-2.1-.5-2.7 0-3.4 1.8-3.4 4.1v5.5h-4.9V8.5h4.9v2.2zM107.5 15.3c0 4.7-3.9 7.3-8.3 7.3s-8.3-2.6-8.3-7.3S94.8 8 99.2 8s8.3 2.7 8.3 7.3zm-11.4 0c0 1.7 1.4 3.1 3.1 3.1 1.7 0 3.1-1.4 3.1-3.1s-1.4-3.1-3.1-3.1c-1.7 0-3.1 1.4-3.1 3.1zM114.7 8.5v7.3c0 1.7.4 3 2.4 3s2.4-1.2 2.4-3V8.5h4.9v8.3c0 4.5-3.2 5.9-7.3 5.9s-7.3-1.4-7.3-5.9V8.5h4.9zM132.1 10.3c1-1.5 2.7-2.4 4.4-2.3 3.7 0 5.2 2.3 5.2 5.7v8.5h-4.8v-7.8c0-1.2-.4-2.5-2.2-2.5-2 0-2.5 1.5-2.5 3.2v7.1h-4.9V8.5h4.9l-.1 1.8zM155.3 20.7c-1 1.3-2.6 2.1-4.2 2-3.9 0-7-3.2-6.9-7.1v-.3c0-3.9 2.8-7.3 6.9-7.3 1.6 0 3.2.6 4.2 1.8V0h4.9v22.2h-4.9v-1.5zm-6.1-5.4c0 1.7 1.4 3.1 3.1 3.1 1.7 0 3.1-1.4 3.1-3.1 0-1.7-1.4-3.1-3.1-3.1-1.7 0-3.1 1.4-3.1 3.1z"/></svg>
